<?xml version="1.0" encoding="UTF-8"?>
<svg id="Camada_1" data-name="Camada 1" xmlns="http://www.w3.org/2000/svg" viewBox="0 0 738 231">
  <path d="M167.25,6.64c19.14,6.6,16.26,26.66,4.31,39.01-14.36,14.85-21.7-7.31-6.55-16.06,4.82-2.78,10.46-.23,8.69-8.01-2.55-11.24-25.18.1-31.09,3.68-38.91,23.58-94.71,100.3-91.34,147.27,2.95,41.17,42.38,39.13,73.2,33.3,71.73-13.57,128.06-44.92,191.59,11.85,1.88,1.68,4.86,4.32,5.67,6.69-3.22-1.2-5.92-3.83-8.98-5.28-17.24-8.16-46.38-14.6-63.11-3.13-1.9,1.31-7.3,7.79-8.68,7.45-18.07-26.41-50.65-23.96-78.66-19.69-39.78,6.06-118.46,41.16-137.43-15.24C3.26,124.24,81.12,31.14,139.19,11.38l16.65-4.74h11.41Z"/>
  <path d="M676.84,115.97l-46.61,82.24.02,2.38c3.86,3.86,18.83-12.28,21.41-15.19s12.78-17.95,13.77-18.55c1.56-.94,5.81-.77,7.6,0-3.79,3.7-6.01,8.56-9.11,12.76-8.79,11.93-29.75,37.01-44.1,40.52-13.96,3.41-15.67-3.74-15.73-15.73-9.29,7.25-19.41,19.04-32.62,15.53-9.01-2.39-7.94-12.81-7.78-20.27-9.14,7.39-17.76,21.04-30.89,20.99-25.56-.09-8.24-44.26-3.33-57.11l-12.91,1.81c-9.34,17.91-36.69,53.18-57.91,55.23-26.22,2.53-14.04-35.41-7.66-48.53,8.81-18.11,40.84-57.3,61.8-58.94,18.07-1.41,18.7,12.42,15.05,26.45-.89,3.41-7.13,16.39-6.92,17.78.27,1.79,1.84.88,2.64.79,2.97-.36,6.47-1.82,9.48-2.43,17.11-35.19,37.89-68.81,64.4-97.7,12.23-13.32,47.34-49.22,65.55-48.4,8.43.38,8.78,6.5,7.72,13.29-.35,2.26-3.67,12.81-4.83,14.18-1.59,1.87-5.91,1.51-8.04,2.88-.75-.89,9.89-17.68,6.58-21.8-3.74-2.53-15.07,7.34-18.01,9.9-25.5,22.2-50.14,56.63-67.3,85.76-3.2,5.43-11.98,19.49-13.48,24.55-.4,1.33.1,1.69,1.4,1.4,20.99-16.19,40.38-34.39,58.02-54.17,5.66-6.35,9.66-16.59,18.76-17.38,1.15-.1,1.89-1.85,1.66.72-18.52,23.05-38.56,46.11-61.34,65.11-6.55,5.46-21.68,14.14-26.13,19.5-4.19,5.04-13.91,32.33-14.25,39.03-.27,5.32,1.28,10.6,7.65,8.57,4.85-1.54,12.34-11.51,15.57-15.82,15.04-20.12,26.19-41.94,45.69-58.89,9.67-8.41,30.15-21.83,38.55-5.69l1.96-.59,1.82-4.15h21.87ZM514.03,122.84c-18.53,2.98-20.65,30.59-.33,33.89,4.97-7.23,13.48-23.16,7.76-31.31-2.02-2.89-4.14-3.1-7.43-2.57ZM591.5,199.41c1.73,1.73,5.03,1.22,7.11.44,7.88-2.97,23.11-28.37,28.23-36.42,5.73-9.01,16.95-25.33,20.74-34.42,2.72-6.52-5.31-5.52-9.43-3.7-13.13,5.8-46.33,54.03-47.79,68.26-.17,1.64-.03,4.68,1.14,5.84ZM490.99,147.35c-3.95.86-20.86,33.22-21.93,38.93-1.85,9.87,1.32,18.11,12.25,12.25,11.72-6.28,21.78-23.82,29.05-34.55-3.65-3.49-8.55-5.05-12.27-8.54-1.86-1.75-5.9-8.34-7.1-8.08Z"/>
  <path d="M347.89,61.78l-47.48,82.28,2.3,2.97c7.06.8,28.05-25.46,32.82-31.53h7.6c-11.65,14.45-23.97,31.56-38.66,43.09-12.53,9.84-30.06,16.76-30.26-6.49-12.2,13.78-42.4,28.24-39.47-3.34.27-2.86,2.38-5.42,1.44-8.07-13.69,12.4-40.71,38.34-59.46,22.37-15.29-13.03-.76-42.86,7.64-56.59l-11.92,2.81c-9.83,18.35-39.76,57.86-61.9,58.92-7.72.37-14.47-6.45-15.47-13.81-4.11-30.23,30.52-74.41,55.72-88.63,13.76-7.76,32.16-11.22,33.59,9.75l-6.19,25.25c23.76-5.38,47.03-49.65,73.66-39.46,15.82,6.05,3.87,34.98-6.37,37.34-13.95,3.22-8.52-15.13.66-19.3,3.37-1.53,11.41-1.37,5.74-7.61-6.06-6.67-20.05,6.72-24.76,11.4-11.59,11.51-33.97,45.31-31.29,61.77,1.51,9.26,10.98,8.72,17.71,5.46,21.24-10.29,40.13-43.36,55.9-61.04,11.92-13.36,37.05-40.32,55.14-23.74l1.44-3.82h21.87ZM156.17,95.68c2.11,2.27,9.77,6.62,12.73,5.35,5.39-2.33,15.91-37.27-3.3-30.9-9.6,3.18-17.32,17.06-9.43,25.56ZM312.45,70.56c-9.14,1.91-33.53,35.49-39.12,44.54-2.93,4.74-22.34,37.73-4.3,31.83,5.92-1.93,15.58-16.07,19.35-21.52,11.14-16.11,20.07-33.75,30.56-50.27,1.84-5.25-2.41-5.43-6.5-4.57ZM144.91,93.17c-7.75,9.31-28.31,39.4-21.45,50.9,6.39,10.73,24.94-10.65,28.97-15.83,1.83-2.35,12.68-18.09,12.82-19.55s-.54-1.45-1.53-2.03c-6.93-4.05-14.35-4.83-18.81-13.49Z"/>
  <path d="M610.28,36.12l-16.62,17.11c-23.88-11.71-46.22-37.81-75.04-32.44-1.17.83-.38,9.43-.67,11.87-2.3,19.49-28.24,62.48-50.61,61.38-16.65-.82-10.44-20.95-5.88-30.4,9.57-19.87,27.02-33.3,44.25-46.07-8.37-2.92-19.18,2.59-26.54,6.74-40.56,22.87-90.41,87.76-103.43,132.35-4.35,14.87-10.53,46.24,12.53,47.78,24.45,1.64,53.5-38.85,58.78-60.14,1.46-5.87,4.92-20.7-4.53-20.74-13.39-.05-23.58,23.89-25.45,34.97-10.71,4.46-19.92,11.84-27.81,20.2-.72-9.58,3.14-19.54,6.97-28.21,6.71-15.19,19.14-30.66,35.55-35.75,17.18-5.33,24.98,3.64,23.44,20.59-3.27,36.06-51.03,95.51-91.15,83.78-38.53-11.27-17.92-71.03-4.92-95.24,21.88-40.72,88.91-118.66,139.29-116.23,6.66.32,13.59,6.04,15.36,6.21,1.38.13,10-3.31,12.83-3.91,16.31-3.46,28.16-2.4,43.43,4.12,14.1,6.02,26.15,16.16,40.24,22.04ZM511.41,23.75c-1.44-1.48-14.6,7.89-16.61,9.52-9.68,7.86-28.98,29.64-31.45,41.75-3.1,15.19,6.5,14.87,16.44,7.88,16.84-11.84,32.32-38.3,31.63-59.16Z"/>
  <path d="M621.7,63.68c-.7-.58,5.4-7.71,6.16-8.57,3.09-3.48,6.81-6.48,9.95-9.92,30.04,1.4,57.16-14.62,78.95-33.79.85.95-7.33,12.18-8.58,13.76-19.89,25.2-53.54,44.21-86.48,38.53Z"/>
  <path d="M384.01,62.73c.94.86-9.65,16.06-10.93,18.06h-19.49l10.93-18.06h19.49Z"/>
</svg>