<?xml version="1.0" encoding="UTF-8"?>
<svg id="Camada_1" data-name="Camada 1" xmlns="http://www.w3.org/2000/svg" viewBox="0 0 738 534">
  <g>
    <path d="M625.91,48.46v321.76H120.58V48.46h505.33ZM576.56,210.3L372.82,62.25l-202.9,148.06,202.97,147,203.67-147Z"/>
    <path d="M289.79,159.29c62.86,17.08,121.44,52.1,164.37,100.85-35.01,59.1-120.63,61.82-160.68,5.76-21.99-30.77-24.96-74.74-3.69-106.61Z"/>
    <path d="M465.03,237.95c-1.71.44-1.97-.71-2.96-1.47-4.94-3.8-9.96-10.41-14.78-14.83-40.72-37.27-90.12-65.23-143.12-80.91,71.89-70.6,188.82,1.1,160.87,97.21Z"/>
  </g>
  <g>
    <path d="M110.22,399.59h98.75c5.6,0,10.25,1.07,13.93,3.2,3.68,2.13,6.46,4.87,8.34,8.22,1.88,3.35,2.82,6.86,2.82,10.54s-.96,7.26-2.89,10.73c-1.92,3.47-4.83,6.29-8.72,8.47-3.89,2.18-8.76,3.26-14.62,3.26-.08,0-.08.04,0,.12,6.78,0,12.38,1.21,16.81,3.64,4.43,2.43,7.74,5.52,9.91,9.29,2.17,3.76,3.26,7.74,3.26,11.92,0,3.1-.61,6.11-1.82,9.03-1.21,2.93-3.03,5.58-5.46,7.97-2.43,2.38-5.44,4.27-9.03,5.65-3.6,1.38-7.78,2.07-12.55,2.07h-98.75v-94.1ZM159.78,431.33c-.08,0-.12.04-.12.13v11.17h17.32c1.5,0,2.76-.27,3.76-.82,1-.54,1.76-1.25,2.26-2.13.5-.88.75-1.82.75-2.82,0-1.42-.48-2.7-1.44-3.83-.96-1.13-2.36-1.69-4.2-1.69h-18.32ZM159.65,451.78v8.41h17.94c2.26,0,3.95-.58,5.08-1.76,1.13-1.17,1.69-2.51,1.69-4.01,0-.75-.12-1.44-.38-2.07s-.61-1.21-1.07-1.76c-.46-.54-1.05-.96-1.76-1.25-.71-.29-1.53-.44-2.45-.44h-18.95l-.12.12v2.76Z"/>
    <path d="M284.87,415.9v77.79h-43.41v-77.79h43.41ZM284.75,463.83l6.78-33.75c.75-3.59,2.24-6.59,4.45-8.97,2.22-2.38,4.83-4.2,7.84-5.46,3.01-1.25,6.11-2.03,9.29-2.32,3.18-.29,6.11-.17,8.78.38,2.68.54,4.81,1.44,6.4,2.7l-9.54,46.67c-2.43-2.01-5.38-3.39-8.85-4.14-3.47-.75-6.96-1.02-10.48-.82-3.51.21-6.61.82-9.29,1.82-2.68,1-4.48,2.3-5.4,3.89Z"/>
    <path d="M357.96,414.2c7.15-1.38,14.32-2.07,21.52-2.07s13.8.67,20.33,2.01c6.52,1.34,12.36,3.39,17.5,6.15,5.14,2.76,9.22,6.19,12.23,10.29,3.01,4.1,4.52,8.91,4.52,14.43v48.68h-43.91v-26.35c0-1.51-.5-2.72-1.51-3.64-1-.92-2.22-1.57-3.64-1.95-1.42-.38-2.84-.56-4.27-.56-3.18,0-5.58.63-7.21,1.88-1.63,1.25-2.45,2.68-2.45,4.27s.83,3.03,2.51,4.33c1.67,1.3,4.06,1.95,7.15,1.95,1.51,0,3.22-.29,5.14-.88,1.92-.58,3.39-2.09,4.39-4.52-1.76,4.1-3.54,8.2-5.33,12.3-1.8,4.1-3.58,8.2-5.33,12.3-3.01,1.5-6.17,2.57-9.47,3.2-3.31.63-6.59.94-9.85.94-3.93,0-7.72-.52-11.36-1.57-3.64-1.05-6.9-2.57-9.79-4.58s-5.17-4.52-6.84-7.53c-1.67-3.01-2.51-6.52-2.51-10.54,0-2.42.42-4.81,1.25-7.15.83-2.34,2.09-4.56,3.76-6.65,1.67-2.09,3.78-3.93,6.34-5.52,2.55-1.59,5.58-2.82,9.1-3.7,3.51-.88,7.53-1.32,12.04-1.32,2.93,0,5.77.23,8.53.69,2.76.46,5.37,1.15,7.84,2.07,2.47.92,4.68,2.05,6.65,3.39,1.96,1.34,3.58,2.84,4.83,4.52v-1.13c0-2.59-.65-4.83-1.95-6.71-1.3-1.88-3.05-3.43-5.27-4.64-2.22-1.21-4.77-2.11-7.65-2.7-2.89-.58-5.92-.88-9.1-.88-4.94,0-9.91.63-14.93,1.88s-9.41,3.1-13.17,5.52v-29.99c6.11-2.76,12.74-4.83,19.89-6.21Z"/>
    <path d="M437.7,440.74c0-4.77,1.36-8.91,4.08-12.42,2.72-3.51,6.42-6.46,11.1-8.85,4.68-2.38,10-4.16,15.93-5.33,5.94-1.17,12.13-1.76,18.57-1.76,7.95,0,15.33.71,22.15,2.13,6.82,1.42,12.99,3.3,18.51,5.65v29.11c-2.34-1.76-5.42-3.26-9.22-4.52-3.81-1.25-7.82-2.22-12.05-2.89-4.22-.67-8.22-1-11.98-1-2.51,0-4.79.15-6.84.44-2.05.29-3.68.73-4.89,1.32-1.21.59-1.82,1.34-1.82,2.26,0,.5.19.88.56,1.13.38.25.94.42,1.69.5.75.08,1.71.12,2.89.12h10.16c4.18,0,8.38.27,12.61.82,4.22.54,8.07,1.61,11.54,3.2,3.47,1.59,6.25,3.87,8.34,6.84,2.09,2.97,3.14,6.88,3.14,11.73,0,5.1-1.4,9.43-4.2,12.99-2.8,3.56-6.61,6.44-11.42,8.66-4.81,2.22-10.21,3.83-16.19,4.83-5.98,1-12.19,1.51-18.63,1.51-7.61,0-15.12-.71-22.52-2.13-7.4-1.42-13.74-3.51-19.01-6.27v-30.62c2.09,2.26,5.08,4.12,8.97,5.58,3.89,1.46,8.11,2.55,12.67,3.26,4.56.71,8.85,1.07,12.86,1.07,2.59,0,4.93-.15,7.03-.44,2.09-.29,3.74-.75,4.96-1.38,1.21-.63,1.82-1.44,1.82-2.45,0-.42-.12-.71-.38-.88-.25-.17-.65-.29-1.19-.38-.54-.08-1.28-.12-2.2-.12h-7.53c-2.93,0-6.17-.1-9.72-.31-3.56-.21-7.09-.67-10.6-1.38-3.51-.71-6.71-1.84-9.6-3.39-2.89-1.55-5.21-3.68-6.96-6.4-1.76-2.72-2.63-6.13-2.63-10.23Z"/>
    <path d="M535.94,449.9v-34h43.41v24.84l-.13.13c-7.2,1.51-14.41,3.01-21.64,4.52-7.24,1.51-14.45,3.01-21.64,4.52ZM535.94,493.69v-43.79h43.41v43.79h-43.41Z"/>
    <path d="M584.37,493.69v-94.1h43.41v94.1h-43.41Z"/>
  </g>
</svg>