<?xml version="1.0" encoding="UTF-8"?>
<svg id="Camada_1" data-name="Camada 1" xmlns="http://www.w3.org/2000/svg" viewBox="0 0 738 534">
  <path d="M296.87,62.73c.45.13,1.33,3.36,1.45,3.51,2.56,3.32,7.77,7.01,10.73,10.31,10.49,11.72,20.85,24.94,31.36,36.72,1.94,2.18,4.7,3.85,6.3,6.4l56.16-55.76c.52-.38.4-1.18.47-1.18h163.4v113.88l4.75-3.91c-.3-2.59,1.44-2.12,1.44-2.28V62.73l3.51,1.44c5.4,4.74,12.31,7.54,18.56,11.15.52.3,1.21,1.84,1.63,2.08.76.42,2.29.08,2.29.19v59.42c.83.35,1.93-.96,2.25-1.46,5.77-9.03,15.8-22.68,26-27.23,5.16-2.3,10.47-3.09,17.12-2.23.44.06.42,1.1.86,1.2,1.28.28,2.97-.32,4.08.04.38.13,6.11,3.65,6.42,3.9,5.39,4.31,8.87,15.33,7.68,22.42-.19,1.13-1.18.86-1.27,1.32-.8,4.56-1.79,13.16-3.94,16.69-.77,1.26-4.61,3.93-5.77,5.36-.34.42-.06,1.53-.43,2.05-1.72,2.4-14.86,6.92-18.14,9.09-2.54,1.68-5.2,5.05-8.66,7.43-.55.38-1.22,1.85-1.63,2.08-.72.4-2.06.01-2.26.22s.18,1.55-.22,2.27c-.27.49-2.84,2.18-3.32,2.86-5.82,8.25-11.14,17.1-16.51,25.58-.36.57-2.12,1.37-2.23,1.91v189.26s-5.19,4.41-5.19,4.41c-5.93,3.81-12.38,7.58-18.15,11.56-.99.68-1.13,2.6-2.69,2.26v-158.45c-2.18-.37-2.25,2.87-2.69,3.5-1.33,1.93-1.18.4-2.44,3.76-.12.32-1.06.11-1.06.17v151.02h-162.16v-155.97l-57.89,48.34-1.37-.25c-6.92-7.87-14.94-14.72-22.2-22.24-.23-.24.31-1.33-.44-2.11-7.29-7.54-15.26-14.45-22.24-22.3l-2.31-.2v154.73h-162.16V62.73h160.92ZM645.76,111.21c-17.31-2.87-24.75,5.6-34.27,17.33-5.61,6.91-12.01,14.77-17.75,21.87-8.63,10.68-16.56,21.23-24.76,32.18-4.53,6.05-7.07,10.53-10.72,16.51-2.55,4.18-2.48,6.6-3.94,10.5-5.42,14.47-17.68,27.2-23.49,41.71-.43,1.06-.46,3.9-1.46,5.55-.18.3-4.57,4.85-4.9,4.96-3.1,1.06-3.1-.56-3.78-.82-4.29-1.66-4.64-3.04-6.19-7.43-3.25-9.18-1.84-19.22-3.44-29.04-1.14-7.02-1.91-14.53-3.75-21.13-.25-.91.2-1.97-.2-3.12-.09-.25-3.44-3.6-3.68-3.68-1.15-.4-2.22.05-3.13-.2-.49-.14-.43-1.13-.87-1.2-9.26-1.42-13.03,1.31-19.58,5.96-.48.34-1.46.08-2.04.43-2.16,1.33-1.05,2.74-1.47,4.29-4.24,15.42,4.41,30.84,8.67,44.19,6.46,20.28,10.82,41.69,17.33,61.89,1.88,5.85,5.23,16.64,8.89,21.64,3.13,4.28,6.15,5.23,10.5,6.41.48.13.42,1.12.87,1.2,1.18.21,4.14.21,5.32,0,.44-.08.42-1.1.86-1.2,2.32-.52,4.36.02,6.79-1.46,2.25-1.37,5.61-7.22,6.61-9.48.46-1.03,3.4-7.6,3.47-8.08.89-5.81-.97-14.12-.03-19.72,2.56-15.2,16.17-33.58,24.59-46.9,2.99-4.74,4.03-9.1,6.18-13.63,1.92-4.05,3.24-3.56,4.97-6.17,2.35-3.55,4.37-10.5,6.61-14.44,6.94-12.22,15.04-22.4,23.1-33.84,1.85-2.62,3.83-7.13,5.58-9.71,2.28-3.37,7.91-4.51,9.26-6.39,4.14-5.76,4.24-5.13,10.35-8.22,9.6-4.87,13.97-4.55,18.57-14.85,2.36-5.28,3.09-10.93,4.7-16.75.11-.4-1.09-7.34-1.24-7.79-.8-2.44-4.08-4.36-4.74-5.57-.4-.72,0-2.06-.22-2.27s-1.54.18-2.26-.22c-.38-.21-1.35-2.02-1.58-2.1-.82-.29-3.52-1.18-3.73-1.22ZM502.17,132.25c-1.62-.24-4.01-.48-5.57-.18-.39.08-.45.91-.67.99-4.43,1.58-11.27,6.7-14.43,10.33-.35.41-.06,1.61-.42,2.06-1.98,2.51-8.71,5.46-11.95,6.62-4.35,1.55-9.97,4.4-14.27,5.95-.76.28-2.03-.24-2.82.04-.69.24-1.57,2.3-2.16,2.42-1.37.27-6.35.25-7.76,0-.2-.04-3.16-2.37-3.36-2.43-1.14-.31-2.63.26-3.63.03-1.32-.31-1.19-2.01-4.95-1.33-.45.08-7.73,3.71-8.11,3.96-.23.15-3.8,3.7-3.89,3.96-.27.77.2,1.97-.04,2.82-.15.52-1.08.18-1.27,1.32-.71,4.15.85,10.62.02,14.75-.06.27-3.59,3.74-3.89,3.96-2.64,1.97-7.23,3.61-9.92,4.94-10.73,5.31-18.73,11.06-28.46,17.34-6.09,3.93-12.3,8.73-19.38,11.57-3.68,1.48-10.25,2.71-13.63,4.94-1.75,1.15-7.34,8.69-7.61,10.14-.3,1.66-.3,8.59,0,10.25.1.55,5.44,8.21,6.15,8.69.44.3,5.1,2.81,5.41,2.87,4.15.75,11.06.49,14.18-2.67.94-2.52,2.8-6.3,4.15-8.24,6.95-9.99,17.43-15.78,26.82-22.7,6.67-4.91,13.89-10.26,21.46-14.44,2.08-1.15,8.57-2.8,9.5-.04.4,1.18-.03,2.2.21,3.11,2.11,7.83,2.37,16.39,3.75,24.84,2.19,13.49.31,62.4-2.51,75.05-.3,1.33-1.2,4.68-1.24,4.96-.83,6.53,2.31,17.61,3.71,23.89,1.77,7.93,1.96,17.52,3.68,25.62.56,2.65-.05,5.71,2.71,8.01,7.73,3.56,20.21,6.44,28.04,1.25,1.14-.75,4.81-5.55,5.14-6.43,1.27-3.35,1.67-7.93,2.51-11.5.11-.47,1.09-.18,1.27-1.34.49-3.1-1.17-2.55-1.34-3.7-1.22-8.54-4.31-14.05-6.12-21.83-2.57-11.03-1.81-33.71.03-45.02s-3.06-21.24-.07-31.73c.89-3.14-1.09-3.09-1.26-4.17-2.29-14.21-.15-30.24-2.48-44.56-.79-4.84.73-8.68,1.33-12.38.79-4.84-1.83-9.08,3.87-12.52,2.32-1.4,7.14-2.46,9.92-3.7,10.52-4.69,19.46-11.24,29.71-16.09,5.4-2.55,7.26-3.13,9.9-8.66.94-1.96.51-1.56,1.03-3.5.13-.48,1.14-.42,1.2-.87.23-1.5.27-6.35-.01-7.77-.11-.54-1.88-1.34-2.23-1.91s-.07-1.57-.42-2.06c-.15-.21-3.42-3.65-3.67-3.73-1.87-.56-3.82.2-5.59-.21-.43-.1-.48-.99-.61-1.01Z"/>
  <path d="M304.29,278.11l23.33,22.44.18,101.34c-2.72-.76-3.5,2.26-5.15,3.51-3.61,2.75-8.1,5.41-11.97,7.84-1.66,2.41-3.69,3.72-6.4,4.74v-139.88Z"/>
  <path d="M366.19,427.89s-.09.69.23,1.01,1.01.18,1.01.23v25.99h12.38c.2,0,1.13,3.38,2.48,2.48v-28.47h25.99v8.66h-13.62c-.07,0,.32.83-.46,1.24-1.51.8-2.53-1.57-2.02,3.71h14.85v9.9h-14.85c-.19,0-.19,3.71,0,3.71h17.33v9.9c-8.27,1.01-19.71-1.33-27.58-.05-1.16.19-.62,1.14-1.78,1.33-3.19.52-18.4.46-21.73,0-.12-.02-2.14-1.16-2.14-1.28v-37.14c0-.05.68.1,1.01-.23s.18-1.01.23-1.01c1.88,0,7.45-.4,8.66,0Z"/>
  <path d="M149.56,429.13c.1.03,1.19,1.59,1.21,1.69.31,1.69-.31,3.73.05,5.3.17.71,2.32,6.36,2.43,7.06.31,1.83-.45,4.02.34,5.76,1.77.22.59-2.16.94-3.28,1.29-4.17,2.3-8.96,3.67-13.25.24-.75-.14-3.28.02-3.28h13.62v37.14h-8.66v-19.81c-2.27-.49-.9,2.97-1.26,4.52-.78,3.38-2.54,8.45-3.67,12.01-.27.86.2,3.06-.02,3.28s-5.68.15-6.52.03c-2.91-.39-1.79-4.27-2.17-5.8-.09-.35-2.36-5.47-2.44-5.82-.56-2.39,1.33-6.38-2.5-6.99v18.57h-8.66v-37.14c3.53.65,10.6-.88,13.62,0Z"/>
  <path d="M548.15,429.13c.37.1,1.27,3.04,1.46,3.49,1.39,3.32,3.36,7.15,4.96,11.13l2.25,2.7v-17.33h8.66v37.14h-9.9c-.1,0,.21-1.52-.03-1.99-2.05-4-4.22-9.09-6.39-13.87l-2.25-2.7v18.57h-8.66v-37.14c2.67.48,7.6-.65,9.9,0Z"/>
  <path d="M523.2,428.11c.29.06,4.86,2.48,5.15,2.7.36.27,4.79,7.01,4.92,7.43.35,1.13-.23,2.79.04,4.08.1.47,1.08.18,1.27,1.32.26,1.57.15,6.88-.07,8.58-.06.44-1.1.42-1.2.86-.28,1.28.32,2.97-.04,4.08-.33,1-6.31,8.1-7.61,8.9-2.63,1.61-8.73,1.96-11.73,1.42-.39-.07-.46-.92-.67-.99-3.41-1.2-7.5-5.3-8.67-8.67-3.38-9.75-3.14-18.42,4.16-27.23,4.81-2.31,8.71-3.72,14.44-2.48ZM520.76,437.99c-7.55-2.34-9.33,7.51-8.49,12.99.04.23,2.13,1.58,1.4,3.99,8.38,8.4,12.48-4.45,10.93-11.78-1-.72-2.74-4.86-3.85-5.21Z"/>
  <path d="M353.81,429.13v8.66h-14.85c-.28,0-2.03,3.91-1.24,4.95h14.85v8.66c0,.05-.68-.1-1.01.23s-.18,1.01-.23,1.01h-13.62c-.19,0-.19,3.71,0,3.71h16.09v9.9h-25.99v-37.14h25.99Z"/>
  <path d="M185.46,429.13v25.99c0,.21,3.18,2.48,3.38,2.51,1.19.19,5.28-.51,5.28-1.27v-27.23h9.9v29.71c0,.05-.94-.16-1.06.16-2.16,5.53-1.46,5.36-7.38,7.48-.22.08-.28.92-.67.99-3.14.57-10.24.25-12.97-1.42-.3-.18-4.86-4.57-4.97-4.9-.39-1.2.07-2.33-.17-3.15-.21-.68-1.25-.34-1.25-.41v-28.47h9.9Z"/>
  <path d="M216.41,453.89c.11.13-.23,1.52.19,2.29,2.02,3.7,9.27,4.19,8.52-1.36-.36-2.65-3.55-1.81-4.56-2.18-1.4-.52-7.31-2.88-8.89-3.91-2.79-1.81-2.09-3.39-2.7-5.55-.15-.52-1.06-.18-1.27-1.32-.17-.9-.11-3.91.07-4.86.06-.3,2.41-4.81,2.66-5.19,3.29-5.06,13.24-4.88,18.16-2.47,3.16,3.31,5.97,5.99,5.16,10.93h-8.66c-.43,0-1.39-3.68-1.58-3.74-.34-.11-5.64-.18-5.84.03-.72.75.23,4.42,1.7,4.92.81.28,2.03-.22,2.82.05.41.14,3.7,1.97,4.37,2.24.89.37,3.92,1.28,4.53,1.67,5.51,3.55,5.43,15.42,0,19.39-4.47,2.06-8.4,3.64-13.76,2.73-1.14-.19-.8-1.12-1.32-1.27-.85-.24-2.05.23-2.82-.04-.34-.12-5.1-4.73-5.22-5.08-.4-1.15.06-2.26-.2-3.13-.11-.37-2.32-1.55-1.22-4.15,1.48.28,9.58-.38,9.9,0Z"/>
  <path d="M468.93,453.89c.17.18-.19,2.38.04,3.25.66,2.54,8.7,3.25,7.35-2.78-.46-2.05-3.82-1.43-4.46-1.73-2.95-1.33-3.36-1.54-6.48-2.64-.23-.08-1.19-1.89-1.58-2.1-.72-.4-2.07-.01-2.26-.22-.24-.25.19-1.52-.06-1.95-.39-.67-1.09-.35-1.25-1.38-.52-3.38-.29-11.5,2.75-13.74.38-.28,3.77-1.42,4.51-1.68,5.84-2.1,7.85-1.59,13.1,1.42.44.25,1.69-.17,1.94.07.21.2-.18,1.55.22,2.26.26.48,2.14,1.31,2.26,1.88.34,1.73-.16,3.92.03,5.73h-8.66c-.11,0,.21-1.48-.2-2.28-1.26-2.43-6.83-1.73-7.19.26-.58,3.16.77,1.48,1.94,2.06,4.56,2.25,5.95,2.37,10.25,3.87.34.12,5,4.87,5.07,5.22.88,4.33.3,12.73-3.89,15.43-3.67,2.37-9.81,3.45-14.2,2.66-.3-.05-4.81-2.41-5.19-2.66-3.11-2.03-4.57-7.33-3.92-10.93,1.4.27,9.56-.36,9.9,0Z"/>
  <path d="M314,69.13c1.96.51,8.26,4.91,10.54,5.95,10.21,4.65,22.7,8.05,31.53,15.08.52.41,5.77,5.61,6.02,5.96s.73.28.36,1.25c-3.47,1.18-11.68,12.64-13.76,13.44-1.82.7-4.57-2.27-5.83-3.73-6.64-7.7-13.47-16.76-20.22-24.35-4-4.49-10.03-8.07-12.17-13.82,1.23-.07,2.29-.11,3.52.21Z"/>
  <path d="M282.01,451.41c1.52,1.57-1.16,3.92-1.22,4.15-.25.84.25,2.08-.04,2.84-.36.96-5.14,6.91-6.37,7.67-2.63,1.61-8.73,1.96-11.73,1.42-.39-.07-.46-.92-.67-.99-.71-.25-1.61-.16-2.05-.43-.39-.24-6.22-6.01-6.37-6.44-.27-.77.2-1.98-.04-2.82-.14-.49-1.08-.41-1.2-.86-.52-1.83-1.61-9.24-1.3-11.06.19-1.13,1.18-.86,1.27-1.32,1.01-5.73.45-6.78,3.96-11.72.33-.46,6.46-3.93,6.86-3.98,1.58-.23,8.3-.22,9.79.08.53.11,1.34,1.85,1.91,2.23.51.34,1.53.07,2.04.43,3.01,2.16,3.28,7.53,3.93,10.52.14.63,1.84-.02,1.25,1.64h-9.9c-.12,0,.23-1.54-.19-2.29-1.21-2.21-4.34-3.15-6.78-2.62-.18.04-2.68,2.42-2.75,2.6-.4,1.15.05,2.22-.2,3.12-.14.52-1.08.19-1.27,1.32s-.13,4.91.07,6.1c.07.44,1.06.38,1.2.87.26.9-.2,1.97.2,3.12.76,2.17,4.84,3.07,7.07,2.42.23-.07,2.39-3.54,2.62-4.01.25-.51-.07-1.98.03-1.98,1.41,0,9.56-.36,9.9,0Z"/>
  <path d="M421.89,429.13c.21.22-.25,2.43.02,3.28,1.2,3.76,2.8,8.25,3.67,12.01.36,1.54-1.02,5,1.26,4.52-.06-.81-.11-1.51.2-2.29,1.28-3.16,2.79-8.39,3.5-11.76.15-.7.07-5.76,1.26-5.76h9.9c.59,1.66-1.11,1-1.25,1.64-.27,1.25.3,2.84,0,4.12-1.98,8.26-5.36,17.37-7.39,25.62-.51,2.05,1.07,5.42-2.73,5.81-3,.31-6.58-.31-9.66-.06l-8.67-37.13c1.46.27,9.56-.36,9.9,0Z"/>
  <path d="M325.34,429.13v8.66c-1.48-.28-8.66,0-8.66,1.24v27.23h-9.9v-27.23c0-.1-1.5.22-1.99-.03-.64-.33-.31-1.08-1.38-1.26-1.54-.26-3.65.27-5.3.05v-8.66h27.23Z"/>
  <path d="M398.37,275.64v18.57c-1.79.3-2.74,2.52-3.92,3.51-.43.36-1.63.06-2.06.41-5.16,4.29-2.38,3.96-9.68,6-7.69,2.14-15.64,3.91-23.15,6.15-.47.14-3.69.62-3.28-.9l42.09-33.74Z"/>
  <rect x="445.41" y="429.13" width="9.9" height="37.14"/>
  <rect x="489.97" y="429.13" width="9.9" height="37.14"/>
  <rect x="238.69" y="429.13" width="8.66" height="37.14"/>
  <path d="M585.09,428.11c3.23,2,4.1,2.22,5.37,5.75.08.21.9.27.99.66.86,3.83-.94,4.08-1.19,4.94-.55,1.88,0,4.01-2.7,5.55-2.31,1.32-6.35,1.99-9.24,1.41-.57-.11-1.41-1.99-1.88-2.26-.72-.4-2.07-.01-2.26-.22-.24-.25.19-1.52-.06-1.95-1.45-2.49-1.78-5.41-1.18-8.71.07-.39.92-.46.99-.67,1.77-5.16,6.09-5.14,11.17-4.51ZM587.76,434.09c-2.23-.5-.81,1.98-1.25,3.28-.06.17-2.45,1.64-1.21,2.91.09.09,2.38.09,2.47,0,.24-.23-.16-5.16,0-6.19Z"/>
</svg>